<?xml version="1.0" encoding="utf-8"?>
<!-- Generator: Adobe Illustrator 16.0.0, SVG Export Plug-In . SVG Version: 6.00 Build 0)  -->
<!DOCTYPE svg PUBLIC "-//W3C//DTD SVG 1.1//EN" "http://www.w3.org/Graphics/SVG/1.1/DTD/svg11.dtd">
<svg version="1.1" id="Layer_1" xmlns="http://www.w3.org/2000/svg" xmlns:xlink="http://www.w3.org/1999/xlink" x="0px" y="0px"
	 width="1447.24px" height="847.924px" viewBox="0 0 1447.24 847.924" enable-background="new 0 0 1447.24 847.924"
	 xml:space="preserve">
<g>
	<defs>
		<rect id="SVGID_1_" width="1447.245" height="847.924"/>
	</defs>
	<clipPath id="SVGID_2_">
		<use xlink:href="#SVGID_1_"  overflow="visible"/>
	</clipPath>
	<path clip-path="url(#SVGID_2_)" fill="#4A3125" d="M45.024,666.348H32.583v-11.994h12.441V666.348z M95.805,709.599H85.038
		c-4.874,0-8.72-2.381-11.671-7.007c-0.124,9.141-3.598,16.867-10.258,23.28c-6.537,6.425-14.487,9.625-23.716,9.625
		c-9.364,0-17.315-3.324-23.976-9.86c-6.673-6.536-10.009-14.5-10.009-23.752c0-1.08-0.124-4.875-0.261-11.301
		c-0.124-7.367-0.248-11.634-0.248-12.948h13.719v13.072c0.124,7.131,0.124,10.928,0.124,11.411c0,5.582,2.058,10.444,6.027,14.376
		c3.982,4.031,8.844,6.052,14.624,6.052c5.768,0,10.643-2.021,14.611-6.176c4.107-4.044,6.153-8.906,6.029-14.486l-0.645-24.362
		h13.718l0.137,8.795c0.384,3.56,1.923,6.524,4.353,8.782c2.06,2.021,4.23,2.977,6.673,2.977h11.536V709.599z"/>
	<rect x="93.373" y="698.072" clip-path="url(#SVGID_2_)" fill="#4A3125" width="29.62" height="11.522"/>
	<rect x="120.549" y="698.072" clip-path="url(#SVGID_2_)" fill="#4A3125" width="29.62" height="11.522"/>
	<rect x="147.738" y="698.072" clip-path="url(#SVGID_2_)" fill="#4A3125" width="29.62" height="11.522"/>
	<rect x="174.913" y="698.072" clip-path="url(#SVGID_2_)" fill="#4A3125" width="29.62" height="11.522"/>
	<path clip-path="url(#SVGID_2_)" fill="#4A3125" d="M244.791,727.658h-12.304v-12.007h12.304V727.658z M283.9,709.599h-15.133
		h-66.669v-11.522h56.288c-2.568-14.141-9.998-21.148-22.314-21.148c-7.815,0-13.458,1.303-17.055,4.031l-5.247-9.736
		c5.123-4.155,12.689-6.178,22.686-6.178c10.382,0,18.593,3.324,24.745,10.098c5.26,5.581,8.596,13.309,10.134,22.934H283.9V709.599
		z"/>
	<path clip-path="url(#SVGID_2_)" fill="#4A3125" d="M354.167,698.076c-1.414-6.065-4.49-11.412-9.241-16.038
		c0.261,1.179,0.385,2.369,0.385,3.684c0,4.751-1.018,8.905-3.2,12.354H354.167z M333.007,685.362c0-3.92-1.03-7.008-3.076-9.513
		c-1.799-2.011-3.97-3.077-6.413-3.077c-2.431,0-4.354,1.066-6.028,3.077c-1.923,2.505-2.94,5.593-2.94,9.513
		s1.017,7.132,3.063,9.389c1.675,2.135,3.858,3.201,6.413,3.201C329.161,697.952,333.007,693.437,333.007,685.362 M385.449,709.599
		H281.457v-11.522h24.113c-2.692-3.796-3.982-8.088-3.982-12.714c0-3.212,0.521-6.177,1.414-8.794
		c-2.815,1.067-5.383,2.021-7.566,2.964c-0.893-1.772-2.815-5.581-5.768-11.522c11.796-5.099,22.823-7.716,32.957-7.716
		c12.565,0,23.07,4.032,31.542,11.994c7.045,6.773,11.795,15.443,14.227,25.788h17.055V709.599z"/>
	<path clip-path="url(#SVGID_2_)" fill="#4A3125" d="M437.251,709.599h-10.767c-5.644,0-11.026-4.155-12.949-9.624
		c-2.443,5.705-8.98,9.624-16.038,9.624H383.01v-11.522h9.364c5.26,0,10.643-3.325,10.643-8.323l-0.509-57.268h13.458
		c0,8.794,0.521,48.722,0.646,52.282c0.247,7.727,5.63,13.309,11.026,13.309h9.613V709.599z"/>
	<path clip-path="url(#SVGID_2_)" fill="#4A3125" d="M465.715,694.153c0,9.502-6.153,15.443-17.303,15.443h-13.595v-11.522h8.72
		c4.999,0,8.72-2.854,8.72-8.199c0-7.367-0.136-16.868-0.261-28.517c-0.124-13.185-0.26-22.81-0.26-28.627h13.47
		c0.124,5.458,0.124,15.679,0.248,30.774C465.591,676.331,465.715,686.551,465.715,694.153"/>
	<path clip-path="url(#SVGID_2_)" fill="#4A3125" d="M553.672,756.285h-12.304v-11.994h12.304V756.285z M535.08,756.285h-12.304
		v-11.994h12.304V756.285z M608.038,709.599h-10.382c-5.011,0-9.105-1.662-12.565-5.11c-2.567-2.604-4.242-5.582-5.135-8.905
		c-3.2-13.904-9.489-20.801-18.854-20.678c-7.169,0.125-12.18,4.28-15.119,12.479h24.621v14.61c0,9.266-3.337,17.105-10.01,23.642
		c-6.537,6.536-14.611,9.86-23.976,9.86c-9.352,0-17.316-3.324-23.976-9.86c-6.661-6.536-9.997-14.376-9.997-23.752
		c-0.137-2.979-0.26-7.729-0.521-14.5h13.47c0,2.021,0,4.874,0.124,8.31c0.137,3.448,0.26,5.47,0.26,6.301
		c0,6.301,2.308,11.523,7.046,15.442c4.106,3.449,8.596,5.109,13.47,5.109c5.259,0,9.737-1.66,13.718-5.109
		c4.614-3.919,6.922-9.142,6.922-15.678l-0.124-2.741h-27.313c0-11.994,2.815-21.148,8.459-27.672
		c5.52-6.178,12.949-9.278,22.314-9.278c10.134,0,18.072,3.684,23.716,11.051c2.951,4.044,5.519,9.874,7.69,17.354
		c1.538,5.11,5.011,7.604,10.394,7.604h5.768V709.599z"/>
	<rect x="604.833" y="698.072" clip-path="url(#SVGID_2_)" fill="#4A3125" width="29.62" height="11.522"/>
	<rect x="632.008" y="698.072" clip-path="url(#SVGID_2_)" fill="#4A3125" width="29.62" height="11.522"/>
	<rect x="659.197" y="698.072" clip-path="url(#SVGID_2_)" fill="#4A3125" width="29.62" height="11.522"/>
	<rect x="686.373" y="698.072" clip-path="url(#SVGID_2_)" fill="#4A3125" width="29.62" height="11.522"/>
	<rect x="713.562" y="698.072" clip-path="url(#SVGID_2_)" fill="#4A3125" width="29.62" height="11.522"/>
	<path clip-path="url(#SVGID_2_)" fill="#4A3125" d="M765.61,727.656h-12.316v-12.007h12.316V727.656z M778.052,694.153
		c0,9.502-6.028,15.443-17.179,15.443H740.74v-11.522h15.133c5,0,8.721-2.854,8.721-8.199c0-4.626,0-8.546-0.137-11.758
		c-0.125-4.875-0.125-8.918-0.248-11.884h13.582C777.928,685.013,778.052,694.277,778.052,694.153"/>
	<path clip-path="url(#SVGID_2_)" fill="#4A3125" d="M775.873,725.52c16.162-0.234,28.081-10.814,28.081-25.662V666.23h13.595
		v19.847c0.632,6.537,5.768,11.995,11.15,11.995h14.227v11.521h-13.333c-4.999,0-8.968-2.493-11.92-7.354
		c-1.29,18.529-14.612,31.716-33.341,33.142C782.409,733,779.594,729.675,775.873,725.52"/>
	<path clip-path="url(#SVGID_2_)" fill="#4A3125" d="M900.637,675.85c-4.627-3.2-10.902-4.739-18.977-4.739
		c-5.136,0-9.874,0.943-14.104,2.729c7.182,1.773,13.967,6.772,20.379,14.848C893.194,685.002,897.425,680.724,900.637,675.85
		 M924.353,709.599h-26.283c-5.26,0-9.625-1.897-13.086-5.705c-7.566,3.808-14.996,5.705-22.054,5.705h-22.301v-11.522h22.177
		c4.751,0,9.613-0.956,14.611-2.977c-9.353-10.332-18.716-15.804-28.069-16.274v-9.737c9.477-6.425,20.119-9.625,32.051-9.625
		c14.228,0,27.697,4.863,36.541,12.949c-5.259,9.391-12.44,17.576-21.409,24.474c1.663,0.831,4.106,1.19,7.566,1.19h20.256V709.599z
		"/>
	<path clip-path="url(#SVGID_2_)" fill="#4A3125" d="M952.816,694.153c0,9.502-6.153,15.443-17.316,15.443h-13.582v-11.522h8.721
		c4.999,0,8.72-2.854,8.72-8.199c0-7.367-0.136-16.868-0.261-28.517c-0.124-13.185-0.261-22.81-0.261-28.627h13.457
		c0.138,5.458,0.138,15.679,0.262,30.774C952.692,676.331,952.816,686.551,952.816,694.153"/>
	<polygon clip-path="url(#SVGID_2_)" fill="#4A3125" points="983.59,709.599 970.119,709.599 969.486,632.734 982.944,632.734 	"/>
	<path clip-path="url(#SVGID_2_)" fill="#4A3125" d="M1083.726,709.599h-56.548l6.412-11.522h35.647
		c-0.769-6.537-3.212-11.759-7.441-15.679c-3.461-3.212-6.921-4.875-10.382-4.875v-11.286c10.134,0,18.085,3.559,23.592,10.567
		C1080.772,684.295,1083.726,695.223,1083.726,709.599"/>
	<path clip-path="url(#SVGID_2_)" fill="#4A3125" d="M1130.012,709.599h-15.778c-3.584,0-6.659-1.19-9.091-3.448
		c-2.829-2.493-4.367-6.053-4.367-10.567l-0.384-62.849h13.595l0.509,57.85c0,4.279,2.307,7.492,5.903,7.492h9.613V709.599z"/>
	<rect x="1127.579" y="698.072" clip-path="url(#SVGID_2_)" fill="#4A3125" width="29.62" height="11.522"/>
	<rect x="1154.756" y="698.072" clip-path="url(#SVGID_2_)" fill="#4A3125" width="29.62" height="11.522"/>
	<rect x="1181.944" y="698.072" clip-path="url(#SVGID_2_)" fill="#4A3125" width="29.62" height="11.522"/>
	<rect x="1209.12" y="698.072" clip-path="url(#SVGID_2_)" fill="#4A3125" width="29.62" height="11.522"/>
	<path clip-path="url(#SVGID_2_)" fill="#4A3125" d="M1318.105,709.599h-15.133h-66.669v-11.522h56.288
		c-2.568-14.141-9.998-21.148-22.313-21.148c-7.815,0-13.458,1.303-17.056,4.031l-5.247-9.736
		c5.123-4.155,12.689-6.178,22.687-6.178c10.394,0,18.593,3.324,24.745,10.098c5.26,5.581,8.596,13.309,10.134,22.934h12.564
		V709.599z"/>
	<path clip-path="url(#SVGID_2_)" fill="#4A3125" d="M1351.953,656.608h-12.316v-12.007h12.316V656.608z M1333.36,656.608h-12.304
		v-12.007h12.304V656.608z M1352.983,694.153c0,9.502-6.028,15.443-17.179,15.443h-20.133v-11.522h15.133
		c5,0,8.721-2.854,8.721-8.199c0-4.626,0-8.546-0.137-11.758c-0.125-4.875-0.125-8.918-0.248-11.884h13.582
		C1352.859,685.013,1352.983,694.277,1352.983,694.153"/>
	<path clip-path="url(#SVGID_2_)" fill="#4A3125" d="M1385.298,685.717c-2.568,2.978-8.719,4.155-13.47,4.516l-0.634-57.503h13.458
		L1385.298,685.717z M1410.552,686.313c0,6.896-3.077,12.478-9.353,16.869c-6.164,4.278-14.115,6.425-23.852,6.425h-10.903v-11.535
		h5.644c6.027,0,11.15-1.066,15.641-3.324c6.029-2.977,9.104-7.715,9.104-14.016c0-0.36-0.261-16.286-0.77-48.002h13.72
		L1410.552,686.313z"/>
	<polygon clip-path="url(#SVGID_2_)" fill="#4A3125" points="1441.327,709.599 1427.856,709.599 1427.225,632.734 1440.683,632.734 
			"/>
	<path clip-path="url(#SVGID_2_)" fill="#4A3125" d="M38.563,824.339l-7.764-17.563l-7.752,17.563H38.563z M25.043,792.462h11.858
		L61.943,847H48.499l-5.346-12.143H18.444L13.11,847H0L25.043,792.462z"/>
	<path clip-path="url(#SVGID_2_)" fill="#4A3125" d="M96.827,819.146c6.263,0,9.847-3.09,9.847-7.653v-0.149
		c0-5.109-3.832-7.739-10.096-7.739H83.802v15.542H96.827z M70.953,792.849H97.67c7.43,0,13.185,1.936,17.03,5.495
		c3.249,3.015,4.999,7.27,4.999,12.379v0.148c0,8.745-5.086,14.24-12.516,16.783l14.277,19.337h-15.033l-12.516-17.315H83.802
		v17.315H70.953V792.849z"/>
	<path clip-path="url(#SVGID_2_)" fill="#4A3125" d="M164.86,824.339l-7.764-17.563l-7.752,17.563H164.86z M151.341,792.462h11.858
		L188.241,847h-13.445l-5.333-12.143h-24.721L139.408,847h-13.11L151.341,792.462z"/>
	<path clip-path="url(#SVGID_2_)" fill="#4A3125" d="M225.047,836.56c5.681,0,9.104-1.86,9.104-5.88v-0.161
		c0-3.634-2.927-5.879-9.526-5.879h-14.859v11.92H225.047z M221.625,814.741c5.68,0,9.265-1.698,9.265-5.718v-0.161
		c0-3.56-3.002-5.569-8.434-5.569h-12.689v11.448H221.625z M197.251,792.849h27.126c6.685,0,11.945,1.7,15.281,4.788
		c2.667,2.481,4.006,5.495,4.006,9.217v0.148c0,6.115-3.509,9.513-7.677,11.684c6.76,2.394,10.927,6.04,10.927,13.31v0.148
		c0,9.897-8.682,14.848-21.867,14.848h-27.796V792.849z"/>
	<path clip-path="url(#SVGID_2_)" fill="#4A3125" d="M279.975,820.077v-0.147c0-15.395,12.515-28.009,30.463-28.009
		c11.026,0,17.613,3.399,23.045,8.349l-8.186,8.744c-4.503-3.783-9.092-6.103-14.934-6.103c-9.861,0-16.943,7.579-16.943,16.856
		v0.162c0,9.276,6.921,17.017,16.943,17.017c6.673,0,10.767-2.48,15.356-6.351l8.186,7.665c-6.015,5.954-12.689,9.663-23.964,9.663
		C292.75,847.924,279.975,835.631,279.975,820.077"/>
	<path clip-path="url(#SVGID_2_)" fill="#4A3125" d="M377.719,824.339l-7.764-17.563l-7.752,17.563H377.719z M364.2,792.462h11.858
		L401.1,847h-13.445l-5.346-12.143h-24.708L352.255,847h-13.098L364.2,792.462z"/>
	<polygon clip-path="url(#SVGID_2_)" fill="#4A3125" points="410.112,792.849 423.966,792.849 439.334,815.746 454.69,792.849 
		468.545,792.849 468.545,846.991 455.77,846.991 455.77,811.641 439.334,834.773 439,834.773 422.714,811.877 422.714,846.991 
		410.112,846.991 	"/>
	<polygon clip-path="url(#SVGID_2_)" fill="#4A3125" points="482.57,792.849 526.639,792.849 526.639,803.442 495.345,803.442 
		495.345,814.432 522.894,814.432 522.894,825.024 495.345,825.024 495.345,836.398 527.061,836.398 527.061,846.991 
		482.57,846.991 	"/>
	<polygon clip-path="url(#SVGID_2_)" fill="#4A3125" points="538.499,792.849 551.348,792.849 551.348,836.162 580.483,836.162 
		580.483,846.991 538.499,846.991 	"/>
	<path clip-path="url(#SVGID_2_)" fill="#4A3125" d="M641.084,819.146c6.263,0,9.847-3.09,9.847-7.653v-0.149
		c0-5.109-3.832-7.739-10.096-7.739H628.06v15.542H641.084z M615.21,792.849h26.717c7.43,0,13.185,1.936,17.03,5.495
		c3.249,3.015,4.999,7.27,4.999,12.379v0.148c0,8.745-5.086,14.24-12.516,16.783l14.277,19.337h-15.033l-12.516-17.315H628.06
		v17.315H615.21V792.849z"/>
	<path clip-path="url(#SVGID_2_)" fill="#4A3125" d="M709.116,824.339l-7.764-17.563l-7.752,17.563H709.116z M695.597,792.462
		h11.858L732.496,847h-13.444l-5.346-12.143h-24.708L683.664,847h-13.11L695.597,792.462z"/>
	<path clip-path="url(#SVGID_2_)" fill="#4A3125" d="M735.163,820.077v-0.147c0-15.395,12.527-28.009,30.463-28.009
		c11.027,0,17.613,3.399,23.045,8.349l-8.173,8.744c-4.516-3.783-9.105-6.103-14.947-6.103c-9.848,0-16.942,7.579-16.942,16.856
		v0.162c0,9.276,6.921,17.017,16.942,17.017c6.673,0,10.768-2.48,15.356-6.351l8.186,7.665c-6.015,5.954-12.688,9.663-23.964,9.663
		C747.938,847.924,735.163,835.631,735.163,820.077"/>
	<polygon clip-path="url(#SVGID_2_)" fill="#4A3125" points="799.359,792.849 843.428,792.849 843.428,803.442 812.134,803.442 
		812.134,814.432 839.67,814.432 839.67,825.024 812.134,825.024 812.134,836.398 843.85,836.398 843.85,846.991 799.359,846.991 	
		"/>
	<polygon clip-path="url(#SVGID_2_)" fill="#4A3125" points="880.328,792.849 924.818,792.849 924.818,803.678 893.177,803.678 
		893.177,815.2 921.061,815.2 921.061,826.029 893.177,826.029 893.177,846.991 880.328,846.991 	"/>
	<polygon clip-path="url(#SVGID_2_)" fill="#4A3125" points="935.087,792.849 979.169,792.849 979.169,803.442 947.862,803.442 
		947.862,814.432 975.411,814.432 975.411,825.024 947.862,825.024 947.862,836.398 979.578,836.398 979.578,846.991 
		935.087,846.991 	"/>
	<path clip-path="url(#SVGID_2_)" fill="#4A3125" d="M1013.799,836.249c10.52,0,17.613-6.573,17.613-16.174v-0.149
		c0-9.6-7.094-16.322-17.613-16.322h-9.936v32.646H1013.799z M991.014,792.849h22.785c18.37,0,31.059,11.685,31.059,26.916v0.161
		c0,15.232-12.688,27.065-31.059,27.065h-22.785V792.849z"/>
	<polygon clip-path="url(#SVGID_2_)" fill="#4A3125" points="1056.292,792.849 1100.361,792.849 1100.361,803.442 1069.066,803.442 
		1069.066,814.432 1096.615,814.432 1096.615,825.024 1069.066,825.024 1069.066,836.398 1100.782,836.398 1100.782,846.991 
		1056.292,846.991 	"/>
	<path clip-path="url(#SVGID_2_)" fill="#4A3125" d="M1138.098,819.146c6.264,0,9.849-3.09,9.849-7.653v-0.149
		c0-5.109-3.833-7.739-10.097-7.739h-12.776v15.542H1138.098z M1112.225,792.849h26.717c7.43,0,13.185,1.936,17.017,5.495
		c3.262,3.015,5.012,7.27,5.012,12.379v0.148c0,8.745-5.086,14.24-12.516,16.783l14.277,19.337h-15.033l-12.517-17.315h-10.108
		v17.315h-12.849V792.849z"/>
	<path clip-path="url(#SVGID_2_)" fill="#4A3125" d="M1206.129,824.339l-7.765-17.563l-7.765,17.563H1206.129z M1192.609,792.462
		h11.857l25.03,54.538h-13.433l-5.346-12.143h-24.709L1180.676,847h-13.109L1192.609,792.462z"/>
	<polygon clip-path="url(#SVGID_2_)" fill="#4A3125" points="1244.613,803.833 1226.839,803.833 1226.839,792.856 1275.25,792.856 
		1275.25,803.833 1257.463,803.833 1257.463,846.998 1244.613,846.998 	"/>
	<rect x="1285.688" y="792.848" clip-path="url(#SVGID_2_)" fill="#4A3125" width="12.85" height="54.142"/>
	<path clip-path="url(#SVGID_2_)" fill="#4A3125" d="M1359.219,820.077v-0.147c0-9.291-7.344-17.019-17.688-17.019
		c-10.355,0-17.525,7.579-17.525,16.856v0.162c0,9.276,7.343,17.017,17.687,17.017
		C1352.05,836.946,1359.219,829.355,1359.219,820.077 M1310.56,820.077v-0.147c0-15.395,13.11-28.009,31.132-28.009
		c18.035,0,30.972,12.453,30.972,27.847v0.162c0,15.392-13.098,27.994-31.133,27.994
		C1323.496,847.924,1310.56,835.471,1310.56,820.077"/>
	<polygon clip-path="url(#SVGID_2_)" fill="#4A3125" points="1384.103,792.849 1395.961,792.849 1423.335,826.19 1423.335,792.849 
		1436.023,792.849 1436.023,846.991 1425.084,846.991 1396.791,812.571 1396.791,846.991 1384.103,846.991 	"/>
	<path clip-path="url(#SVGID_2_)" fill="#FFFFFF" d="M116.308,390.448c-14.351,12.925-38.24,48.784-59.723,26.432
		c-12.925-14.363-48.784-38.252-26.42-59.723c14.351-12.924,38.24-48.783,59.711-26.431
		C102.8,345.076,138.671,368.978,116.308,390.448"/>
	<path clip-path="url(#SVGID_2_)" fill="#FFFFFF" d="M556.056,507.005c-14.351,12.926-38.24,48.784-59.723,26.433
		c-12.912-14.351-48.784-38.252-26.42-59.724c14.351-12.924,38.24-48.782,59.711-26.431
		C542.548,461.633,578.419,485.535,556.056,507.005"/>
	<path clip-path="url(#SVGID_2_)" fill="#FFFFFF" d="M1241.907,189.97c-23.17-16.236-54.191-18.779-78.192-7.43
		c-24.025,11.127-40.732,35.71-42.594,60.642c-1.154,12.378,1.935,24.794,8.893,31.741c3.486,3.583,8.014,5.978,12.106,6.523
		c3.969,0.509,7.913-0.533,12.329-3.187c4.439-2.667,9.092-6.884,14.152-11.634c4.975-4.776,11.127-10.184,17.304-14.711
		c12.515-9.204,26.345-16.311,40.435-21.893c28.292-11.188,57.416-15.926,85.176-20.924c13.916-2.444,27.598-4.813,40.832-7.703
		c13.633-2.927,25.291-5.979,34.953-11.225c4.788-2.506,8.732-5.52,11.301-8.385c2.629-2.928,3.707-5.371,3.98-7.839
		c0.36-2.555,0.063-4.676-1.253-7.615c-1.191-2.903-3.882-6.363-7.206-9.651c-3.398-3.299-7.689-6.375-12.217-8.98l-3.523-1.861
		l-4.031-1.897c-2.616-1.352-5.52-2.295-8.248-3.473c-11.25-4.255-23.381-7.119-36.008-9.204
		c-25.402-4.13-52.629-4.626-81.553-6.151c-29.037-1.688-59.736-4.652-90.732-15.666c-15.418-5.396-30.798-13.148-44.752-23.555
		c-7.107-5.184-12.59-10.183-17.688-14.363c-5.011-4.155-9.538-7.579-13.135-9.662c-3.585-1.985-5.656-2.407-5.954-2.245
		c-0.608,0.173-0.272-0.05-1.39,0.756c-1.141,0.844-3.584,3.362-6.039,7.343c-2.507,3.932-5,8.918-7.629,14.823
		c-22.239,49.651-40.102,101.572-54.898,154.696l-5.42,19.983c-1.725,6.635-3.35,13.06-4.937,19.771l-9.502,40.919
		c-6.512,27.821-13.681,56.771-25.216,85.733c-5.793,14.487-12.59,28.752-21.16,42.867c-8.77,14.201-19.15,27.388-31.307,39.146
		c-12.145,11.721-25.898,22.252-41.54,30.45c-15.641,8.124-33.142,13.992-51.548,16.111c-18.433,2.034-37.188,0.235-54.551-4.911
		c-17.365-5.16-33.131-13.384-47.022-23.12c-27.784-19.696-48.709-44.826-65.243-71.866c-16.459-27.647-26.99-55.232-37.161-82.025
		c-10.009-26.705-19.226-52.305-30.748-75.45c-2.89-5.78-5.817-11.461-9.017-16.881c-3.126-5.619-6.215-10.357-9.787-15.331
		c-7.045-9.749-15.157-18.817-24.05-26.754c-17.725-15.914-38.898-27.127-59.562-29.583c-20.615-2.592-40.883,4.168-58.719,19.039
		c-17.947,14.81-33.241,36.305-47.022,59.488c-27.547,47.667-54.6,98.41-86.316,146.423c-16.074,23.927-33.092,47.519-52.715,69.113
		c-19.56,21.681-41.737,41.093-65.589,57.788c-23.865,16.72-50.098,30.028-77.51,39.208c-27.412,9.116-56.399,13.32-84.642,11.51
		c28.193-2.852,55.134-11.163,80.003-23.058c24.956-11.858,47.493-27.908,68.244-45.62c20.702-17.887,39.072-38.166,55.431-59.935
		c16.696-21.594,31.704-44.591,45.559-68.417c13.793-23.914,26.556-48.573,38.984-73.689c12.527-25.205,24.423-50.309,38.017-76.158
		c13.879-25.725,29.805-52.343,54.476-74.818c12.367-11.052,27.127-20.876,43.871-27.065c16.621-6.264,35.14-8.881,52.852-7.442
		c17.774,1.352,34.717,6.289,49.998,13.433c15.331,7.12,29.136,16.323,41.627,26.767c12.478,10.456,23.641,22.178,33.527,34.978
		c4.874,6.313,9.675,13.284,13.631,19.87c4.143,6.612,7.951,13.321,11.486,20.094c14.215,27.09,24.621,54.501,35.015,80.326
		c5.185,12.936,10.37,25.501,15.914,37.52c5.643,12.019,11.312,23.567,17.761,33.849c13.024,20.839,29.546,39.468,48.101,52.132
		c18.618,12.689,38.588,18.568,57.838,16.312c9.638-1.191,19.3-4.378,28.652-9.241c9.34-4.937,18.209-11.721,26.284-19.585
		c8.137-7.851,15.23-17.08,21.283-26.829c6.115-9.972,11.61-21.185,16.312-32.845c9.501-23.43,16.236-49.34,22.649-76.368
		c3.236-13.519,6.338-27.362,9.896-41.415c1.749-6.983,3.672-14.215,5.594-21.198l5.917-20.763
		c16.188-55.27,35.686-110.156,60.938-162.847c3.274-6.884,7.121-14.549,12.367-22.388c5.259-7.789,12.03-16.286,22.5-23.517
		c5.259-3.56,11.397-6.623,18.071-8.583c6.723-1.836,13.521-2.667,20.392-2.27c13.854,0.744,25.191,6.078,33.65,11.238
		c16.546,10.654,26.569,22.065,35.264,28.627c8.46,6.747,18.308,12.28,29.359,16.534c22.04,8.694,48.001,12.552,75.041,15.195
		c27.264,2.567,56.598,4.08,86.726,10.171c15.058,3.15,30.339,7.528,45.187,13.966c3.671,1.761,7.416,3.274,11.001,5.284
		l5.409,2.877c1.822,1.029,3.807,2.208,5.655,3.374c7.441,4.812,14.463,10.344,20.85,17.204
		c6.302,6.921,12.281,14.971,16.076,25.315c2.009,5.036,3.149,10.779,3.696,16.522c0.285,5.817-0.014,11.77-1.551,17.327
		c-2.642,11.387-9.315,21.422-16.72,28.343c-7.43,7.082-15.479,11.882-23.381,15.467c-15.765,7.243-32.014,10.034-46.042,12.217
		c-14.487,2.258-28.727,3.833-42.718,5.433c-27.945,3.113-55.022,6.512-80.052,14.066c-12.454,3.869-24.349,8.88-35.127,15.604
		c-5.471,3.423-10.246,6.958-15.827,11.51c-5.595,4.453-11.723,9.501-19.746,13.532c-7.89,4.043-18.52,6.4-28.454,3.969
		c-9.762-2.331-17.7-7.938-23.492-14.921c-5.942-7.107-9.179-15.654-10.556-23.89c-1.377-8.285-1.079-16.422,0.31-24.162
		c5.521-31.108,27.921-57.205,56.374-67.178C1188.646,164.022,1220.945,170.832,1241.907,189.97"/>
</g>
</svg>
